<?xml version="1.0" encoding="UTF-8"?>
<svg version="1.1" xmlns="http://www.w3.org/2000/svg" width="1024" height="1024">
<path d="M0 0 C337.92 0 675.84 0 1024 0 C1024 337.92 1024 675.84 1024 1024 C686.08 1024 348.16 1024 0 1024 C0 686.08 0 348.16 0 0 Z " fill="#FDFDFD" transform="translate(0,0)"/>
<path d="M0 0 C1.95682299 -0.00339833 1.95682299 -0.00339833 3.95317775 -0.00686532 C7.55432504 -0.01295313 11.15544901 -0.01285331 14.75660026 -0.01167095 C18.64836536 -0.01146617 22.54012312 -0.01699303 26.43188477 -0.02172852 C34.04943265 -0.0300192 41.6669728 -0.03278265 49.28452482 -0.03334089 C55.47984356 -0.03381683 61.67515975 -0.03587548 67.87047768 -0.03904152 C85.45439544 -0.04784401 103.03830711 -0.05246156 120.6222271 -0.05171105 C121.56929892 -0.05167109 122.51637075 -0.05163113 123.49214172 -0.05158997 C124.44037659 -0.05154909 125.38861146 -0.0515082 126.36558072 -0.05146609 C141.72649456 -0.0510598 157.08738386 -0.06062604 172.44829061 -0.07472833 C188.23943817 -0.08911064 204.03057378 -0.09599749 219.82172805 -0.09513456 C228.67971287 -0.09480321 237.53767197 -0.09752276 246.39565086 -0.10831261 C253.93858275 -0.11744206 261.48147726 -0.11957286 269.0244123 -0.11280318 C272.86816617 -0.1095502 276.71184844 -0.10943679 280.5555954 -0.11815643 C284.73446412 -0.12753826 288.91316883 -0.12121354 293.09204102 -0.11352539 C294.88931791 -0.12124074 294.88931791 -0.12124074 296.72290343 -0.12911195 C326.47007651 -0.00879545 351.84156594 10.8695314 373.36347961 31.25871277 C387.57820593 45.9497703 395.69931285 63.30098631 399.86347961 83.13371277 C400.03997156 83.74449433 400.2164635 84.35527588 400.39830369 84.98456597 C400.97259573 87.6378372 400.99287919 90.09719253 400.99770069 92.81303024 C401.00215854 93.97806477 401.00661638 95.1430993 401.01120931 96.34343791 C401.01093277 98.26479151 401.01093277 98.26479151 401.01065063 100.22496033 C401.01395052 101.59881864 401.01767635 102.97267599 401.02179211 104.34653211 C401.03180682 108.12613359 401.03552808 111.90571919 401.03818142 115.68533206 C401.04208627 119.76059566 401.05166476 123.83584671 401.06039429 127.91110229 C401.08015777 137.75757701 401.0902266 147.60405274 401.09912208 157.45054233 C401.1035068 162.09075479 401.10887328 166.73096611 401.11411095 171.37117767 C401.13112617 186.80377338 401.14561799 202.23636837 401.15285969 217.66897202 C401.15476951 221.67398327 401.15668985 225.67899451 401.15864563 229.68400574 C401.15912937 230.67940271 401.15961311 231.67479969 401.16011151 232.70036021 C401.16840289 248.80714971 401.19372341 264.91386473 401.22622631 281.02062175 C401.25934653 297.56872872 401.27731309 314.11679793 401.28050393 330.66493821 C401.28266487 339.95122535 401.291352 349.237404 401.3169651 358.52365875 C401.33874032 366.43668311 401.34668928 374.34957265 401.33699832 382.26262358 C401.33247275 386.29501957 401.33423713 390.3271378 401.35375977 394.35949516 C401.49552109 425.38515802 401.49552109 425.38515802 396.86347961 438.13371277 C396.63508066 438.77970224 396.4066817 439.42569171 396.17136157 440.09125662 C386.65243115 466.91513771 368.53425118 488.26810384 342.95137024 501.09220886 C323.42663685 510.21163781 304.15467086 510.72389335 283.02731812 510.6419524 C278.99389027 510.63073475 274.96051774 510.64282033 270.92709351 510.65179443 C263.04856256 510.66565508 255.170193 510.65822468 247.29166988 510.64311885 C238.10108827 510.62617442 228.91054592 510.6294795 219.7199535 510.63321293 C203.31471949 510.63907811 186.90956248 510.62497147 170.50434875 510.6002655 C154.6133689 510.57633693 138.72249183 510.56926756 122.83149719 510.57975769 C105.49040346 510.5911847 88.14935714 510.59307586 70.80826396 510.57865959 C68.95692011 510.57713388 67.10557626 510.57561353 65.25423241 510.57409859 C64.34353256 510.57334077 63.43283271 510.57258296 62.4945359 510.57180218 C56.09939584 510.56707405 49.70427707 510.56890023 43.30913734 510.57316399 C35.51018653 510.57810675 27.71133258 510.57203449 19.91240386 510.55226969 C15.93895704 510.54244543 11.96565726 510.53723957 7.99220276 510.5451622 C4.34608731 510.5522831 0.7002669 510.54526706 -2.94581 510.52755857 C-4.8702564 510.52167732 -6.79473083 510.53027335 -8.7191636 510.53960508 C-36.01944997 510.34332167 -60.46312811 497.48124134 -79.41069031 478.34294128 C-93.75726671 463.24412613 -101.9714738 444.34713095 -106.13652039 424.13371277 C-106.31306994 423.35616581 -106.4896195 422.57861885 -106.67151904 421.77750987 C-107.16764679 418.95674143 -107.26430086 416.34106797 -107.26794815 413.47749043 C-107.2717893 412.3430488 -107.27563044 411.20860718 -107.27958798 410.03978854 C-107.2787215 408.79818176 -107.27785502 407.55657498 -107.27696228 406.27734375 C-107.27954712 404.94117115 -107.28256062 403.60499933 -107.28596568 402.26882857 C-107.29402578 398.59795941 -107.29582471 394.92710982 -107.29656315 391.25623286 C-107.29841558 387.29615228 -107.30596417 383.33608181 -107.31269836 379.37600708 C-107.32627812 370.71421518 -107.33230667 362.05242792 -107.33670902 353.39062715 C-107.33947369 347.97671235 -107.34371161 342.56279932 -107.3482132 337.14888573 C-107.36040849 322.14602807 -107.37070528 307.14317184 -107.37408829 292.14030933 C-107.37430785 291.18007179 -107.37452742 290.21983425 -107.37475364 289.23049859 C-107.37497192 288.26800432 -107.37519019 287.30551004 -107.37541509 286.31384927 C-107.37585855 284.36358567 -107.37630511 282.41332207 -107.37675476 280.46305847 C-107.37697619 279.49566715 -107.37719762 278.52827583 -107.37742576 277.53156962 C-107.38136754 261.88209901 -107.39880141 246.23267513 -107.42211428 230.58322255 C-107.44588119 214.49837897 -107.45829267 198.41355879 -107.45945621 182.32869738 C-107.4603703 173.30507182 -107.46605487 164.28150706 -107.48427582 155.25789833 C-107.49974944 147.56784978 -107.50475499 139.87788081 -107.49653772 132.18781964 C-107.49265589 128.27065455 -107.49343827 124.35364933 -107.50759506 120.43650436 C-107.62448153 86.02870992 -103.00122883 57.5335086 -79.08964539 31.09074402 C-57.44697823 9.40479153 -30.24268934 -0.03872687 0 0 Z " fill="#6059D7" transform="translate(365.1365203857422,255.8662872314453)"/>
<path d="M0 0 C117.76043233 0 117.76043233 0 138.59765625 20.34765625 C149.87630358 32.80001647 154.43164663 48.66020801 154.203125 65.28515625 C153.23521464 82.98674759 148.15308552 98.43410168 134.890625 110.71484375 C124.41025641 119 124.41025641 119 119 119 C121.7893942 124.11279549 124.88916286 128.70170939 128.4375 133.3125 C132.85886838 139.12728588 137.18524146 144.99800096 141.4375 150.9375 C148.48451611 160.75686808 155.64727295 170.55379988 163.37109375 179.85546875 C165 182 165 182 165 184 C157.81638464 184.43402505 150.63617509 184.72985059 143.44238281 184.93383789 C141.00099463 185.01890874 138.56046218 185.13462474 136.12207031 185.2824707 C116.45680584 186.4442167 116.45680584 186.4442167 110.77905273 182.42962646 C106.98203282 178.48549727 104.44894225 173.94616608 102.04748535 169.05953979 C100.69763134 166.40549022 99.0181703 164.12348929 97.1875 161.78125 C96.65543945 161.06517578 96.12337891 160.34910156 95.57519531 159.61132812 C95.05538086 158.91458984 94.53556641 158.21785156 94 157.5 C86.81299473 147.80702602 79.69462508 138.04193761 73 128 C69.99585431 127.48815355 69.99585431 127.48815355 66.4609375 127.48828125 C65.28837402 127.45516846 64.11581055 127.42205566 62.90771484 127.38793945 C61.41191895 127.36304443 59.91612305 127.33814941 58.375 127.3125 C53.63125 127.209375 48.8875 127.10625 44 127 C44 145.81 44 164.62 44 184 C29.48 184 14.96 184 0 184 C0 123.28 0 62.56 0 0 Z " fill="#FDFCFD" transform="translate(525,420)"/>
<path d="M0 0 C14.85 0 29.7 0 45 0 C45 24.42 45 48.84 45 74 C70.08 74 95.16 74 121 74 C121 49.91 121 25.82 121 1 C135.19 1 149.38 1 164 1 C164 61.39 164 121.78 164 184 C149.81 184 135.62 184 121 184 C121 160.57 121 137.14 121 113 C95.59 113 70.18 113 44 113 C44 136.43 44 159.86 44 184 C29.48 184 14.96 184 0 184 C0 123.28 0 62.56 0 0 Z " fill="#FCFCFD" transform="translate(336,420)"/>
<path d="M0 0 C6.88875 -0.061875 13.7775 -0.12375 20.875 -0.1875 C23.0288623 -0.21481201 25.18272461 -0.24212402 27.40185547 -0.27026367 C29.14029381 -0.27903887 30.87873839 -0.28668035 32.6171875 -0.29296875 C33.4944751 -0.30831665 34.3717627 -0.32366455 35.27563477 -0.33947754 C43.98924772 -0.34310117 52.10320337 1.41687892 59 7 C64.09849767 12.24416903 66.13867607 18.08920424 66.4375 25.3125 C66.16172212 33.26593403 64.19711428 40.40902915 58.3125 46 C51.47040321 51.86046835 42.89439325 52.43585493 34.27734375 52.29296875 C33.40178833 52.28994751 32.52623291 52.28692627 31.62414551 52.28381348 C28.39514145 52.26827529 25.1663072 52.226393 21.9375 52.1875 C14.698125 52.125625 7.45875 52.06375 0 52 C0 34.84 0 17.68 0 0 Z " fill="#6648D0" transform="translate(569,458)"/>
<path d="M0 0 C1.31442658 -0.00085442 2.62885316 -0.00170885 3.98311085 -0.00258917 C7.61129147 -0.00481448 11.23944232 -0.00083985 14.86761916 0.0041889 C18.78774296 0.00852152 22.70786519 0.00704498 26.62799072 0.00628662 C33.41317706 0.00576317 40.19835376 0.00889132 46.98353767 0.01452446 C56.793683 0.02266364 66.60382368 0.02525716 76.41397201 0.02651245 C92.33164296 0.02869917 108.24930877 0.03534896 124.16697693 0.04481506 C139.62628656 0.05399901 155.0855948 0.06107504 170.54490662 0.06532288 C171.49838069 0.0655856 172.45185476 0.06584832 173.43422199 0.06611901 C178.21768907 0.06742408 183.00115617 0.06868778 187.78462327 0.06993091 C227.44617639 0.08029169 267.10772378 0.09789967 306.76927185 0.12025452 C306.76927185 0.45025452 306.76927185 0.78025452 306.76927185 1.12025452 C261.1823554 1.86785642 215.60003395 2.20582861 170.00713825 2.2884202 C163.96862221 2.29963668 157.93011249 2.31367171 151.89160201 2.32751094 C145.77009696 2.34148019 139.64859065 2.35489516 133.52708435 2.36830139 C132.84995496 2.36978791 132.17282557 2.37127442 131.47517711 2.37280598 C114.74506849 2.409388 98.01500211 2.43653636 81.28485651 2.44758425 C69.56395871 2.45567807 57.84315559 2.47897612 46.12231195 2.51553792 C39.61489435 2.5351206 33.10764196 2.5477598 26.60019302 2.54270363 C20.5366984 2.5380407 14.47352349 2.55195174 8.41009331 2.57971573 C6.20516828 2.58657832 4.00020983 2.58680797 1.79528618 2.57951546 C-26.39569868 2.49572502 -49.030896 9.08631679 -71.23072815 27.12025452 C-71.89072815 26.79025452 -72.55072815 26.46025452 -73.23072815 26.12025452 C-53.66342458 6.67798164 -26.78505318 -0.06400967 0 0 Z M-74.23072815 27.12025452 C-74.23072815 30.62944729 -74.64967793 30.93536537 -76.9690094 33.37025452 C-77.54199768 33.97869202 -78.11498596 34.58712952 -78.70533752 35.21400452 C-79.31184143 35.84306702 -79.91834534 36.47212952 -80.54322815 37.12025452 C-81.43558167 38.06384827 -81.43558167 38.06384827 -82.34596252 39.02650452 C-84.93871561 41.76120721 -87.55877163 44.46280591 -90.23072815 47.12025452 C-88.71440068 42.33799096 -86.02292189 39.15090259 -82.79322815 35.43275452 C-82.30273987 34.85203186 -81.81225159 34.2713092 -81.30690002 33.67298889 C-79.07532397 31.06797771 -77.10082785 29.03365432 -74.23072815 27.12025452 Z " fill="#5488DC" transform="translate(365.23072814941406,255.87974548339844)"/>
<path d="M0 0 C8.58 0 17.16 0 26 0 C26 8.91 26 17.82 26 27 C17.42 27 8.84 27 0 27 C0 18.09 0 9.18 0 0 Z " fill="#5E92E4" transform="translate(668,360)"/>
<path d="M0 0 C8.58 0 17.16 0 26 0 C26 8.91 26 17.82 26 27 C17.42 27 8.84 27 0 27 C0 18.09 0 9.18 0 0 Z " fill="#5375D9" transform="translate(623,360)"/>
<path d="M0 0 C8.58 0 17.16 0 26 0 C26 8.91 26 17.82 26 27 C17.42 27 8.84 27 0 27 C0 18.09 0 9.18 0 0 Z " fill="#69CFF1" transform="translate(668,314)"/>
<path d="M0 0 C8.58 0 17.16 0 26 0 C26 8.91 26 17.82 26 27 C17.42 27 8.84 27 0 27 C0 18.09 0 9.18 0 0 Z " fill="#62CBF0" transform="translate(623,314)"/>
<path d="M0 0 C-2.88782054 2.88782054 -6.30846029 3.00180543 -10.1875 3.75 C-27.48315332 7.36615949 -41.29685654 14.86831062 -55 26 C-55.66 25.67 -56.32 25.34 -57 25 C-45.15930483 13.23496423 -29.63140256 5.81221977 -13.625 1.6875 C-12.95863525 1.51565186 -12.29227051 1.34380371 -11.60571289 1.16674805 C-7.66196753 0.21713503 -4.05081517 -0.16930652 0 0 Z M-58 26 C-58 29.50919277 -58.41894978 29.81511086 -60.73828125 32.25 C-61.31126953 32.8584375 -61.88425781 33.466875 -62.47460938 34.09375 C-63.08111328 34.7228125 -63.68761719 35.351875 -64.3125 36 C-65.20485352 36.94359375 -65.20485352 36.94359375 -66.11523438 37.90625 C-68.70798746 40.6409527 -71.32804348 43.34255139 -74 46 C-72.48367253 41.21773645 -69.79219374 38.03064807 -66.5625 34.3125 C-66.07201172 33.73177734 -65.58152344 33.15105469 -65.07617188 32.55273438 C-62.84459582 29.94772319 -60.8700997 27.9133998 -58 26 Z " fill="#35AEE8" transform="translate(349,257)"/>
<path d="M0 0 C0.33 0.66 0.66 1.32 1 2 C-0.15276226 4.62268663 -1.36560284 7.17909648 -2.625 9.75 C-7.50531129 20.10781856 -9.85573572 30.8025258 -12 42 C-12.33 42 -12.66 42 -13 42 C-12.94672641 26.9235753 -7.91991364 12.75049927 0 0 Z " fill="#37ACE9" transform="translate(272,306)"/>
<path d="M0 0 C3.25543229 0.34879632 4.01873107 1.02133261 6.25 3.5625 C6.8275 4.366875 7.405 5.17125 8 6 C7.01 6 6.02 6 5 6 C4.731875 5.360625 4.46375 4.72125 4.1875 4.0625 C3.11332248 1.66868314 3.11332248 1.66868314 0 1 C0 0.67 0 0.34 0 0 Z " fill="#6E55D9" transform="translate(734,286)"/>
</svg>
